<svg height="300px" width="300px" fill="#000000" xmlns="http://www.w3.org/2000/svg" version="1.0" viewBox="0 0 492.000000 657.000000" preserveAspectRatio="xMidYMid meet" x="0px" y="0px"><metadata>
Created by potrace 1.11, written by Peter Selinger 2001-2013
</metadata><g transform="translate(0.000000,657.000000) scale(0.100000,-0.100000)" fill="#000000" stroke="none"><path d="M2174 6526 c-505 -41 -522 -43 -565 -68 -70 -42 -111 -96 -145 -198 -18 -51 -19 -93 -19 -561 l0 -507 -45 -5 c-25 -3 -341 -27 -703 -53 l-659 -48 -12 -26 c-36 -71 -24 -134 29 -149 21 -5 238 9 666 45 349 29 655 55 680 58 l46 5 7 -1237 c7 -1182 8 -1238 26 -1273 11 -20 297 -455 636 -965 340 -511 696 -1048 792 -1194 96 -146 184 -276 195 -288 27 -30 89 -62 119 -62 12 0 335 59 717 131 777 147 774 146 815 227 21 43 24 64 30 237 44 1306 136 4497 132 4585 -20 403 -157 691 -385 805 -91 46 -1718 576 -1781 580 -30 2 -289 -15 -576 -39z m1308 -543 c417 -137 754 -249 750 -250 -9 -3 -928 -93 -948 -93 -7 0 -28 28 -45 62 -45 89 -115 159 -197 195 -37 17 -205 90 -374 164 -168 74 -303 135 -299 137 7 2 273 27 336 31 11 1 361 -110 777 -246z m-1127 -152 c396 -175 564 -255 577 -272 45 -59 87 -239 107 -449 14 -146 27 -4378 13 -4365 -9 9 -404 604 -1037 1560 l-212 321 -8 572 -7 572 30 0 c17 0 42 5 54 11 16 7 123 182 349 572 292 503 328 562 352 565 25 3 27 0 27 -33 0 -20 -34 -471 -75 -1002 l-76 -966 28 -29 c33 -34 72 -37 107 -5 l26 22 62 1015 62 1015 43 63 43 63 0 148 0 147 -132 47 c-73 26 -137 47 -142 47 -4 0 -58 -44 -118 -97 l-110 -98 -268 -20 -268 -20 -4 425 c-2 234 -2 428 0 433 2 4 6 7 10 7 4 0 259 -112 567 -249z m2202 -476 c7 -33 16 -112 19 -175 5 -85 -123 -4593 -130 -4607 -2 -2 -961 -183 -1008 -190 l-38 -6 -1 629 c-4 2065 -18 4155 -28 4223 -7 40 -10 75 -9 76 6 5 1115 113 1148 111 34 -1 35 -2 47 -61z m-2155 -282 c10 -9 18 -22 18 -30 0 -13 -621 -1075 -626 -1070 -1 1 -4 243 -5 537 l-4 535 240 21 c311 28 353 28 377 7z"/></g></svg>